<svg width="23" height="20" viewBox="0 0 23 20" fill="none" xmlns="http://www.w3.org/2000/svg">
<path d="M6.51893 17.0978C7.07121 17.0978 7.51893 16.6501 7.51893 16.0978C7.51893 15.5455 7.07121 15.0978 6.51893 15.0978V17.0978ZM5.83711 8.04514V9.04514H6.83711V8.04514H5.83711ZM16.7462 8.04514H15.7462V9.04514H16.7462V8.04514ZM16.0644 15.0978C15.5121 15.0978 15.0644 15.5455 15.0644 16.0978C15.0644 16.6501 15.5121 17.0978 16.0644 17.0978V15.0978ZM10.2917 18.782C10.2917 19.3343 10.7394 19.782 11.2917 19.782C11.8439 19.782 12.2917 19.3343 12.2917 18.782H10.2917ZM12.2917 10.7294C12.2917 10.1771 11.8439 9.72935 11.2917 9.72935C10.7394 9.72935 10.2917 10.1771 10.2917 10.7294H12.2917ZM11.9931 11.4421C12.3867 11.0547 12.3918 10.4215 12.0044 10.0279C11.617 9.63427 10.9838 9.62924 10.5902 10.0166L11.9931 11.4421ZM7.86293 12.7009C7.46931 13.0883 7.46427 13.7214 7.85167 14.115C8.23908 14.5086 8.87222 14.5137 9.26584 14.1263L7.86293 12.7009ZM11.9931 10.0166C11.5995 9.62924 10.9663 9.63427 10.5789 10.0279C10.1915 10.4215 10.1966 11.0547 10.5902 11.4421L11.9931 10.0166ZM13.3175 14.1263C13.7111 14.5137 14.3442 14.5086 14.7316 14.115C15.119 13.7214 15.114 13.0883 14.7204 12.7009L13.3175 14.1263ZM6.51893 15.0978H5.38257V17.0978H6.51893V15.0978ZM5.38257 15.0978C3.66044 15.0978 2.29166 13.7279 2.29166 12.0715H0.291656C0.291656 14.8624 2.586 17.0978 5.38257 17.0978V15.0978ZM2.29166 12.0715C2.29166 10.415 3.66044 9.04514 5.38257 9.04514V7.04514C2.586 7.04514 0.291656 9.28053 0.291656 12.0715H2.29166ZM5.38257 9.04514H5.83711V7.04514H5.38257V9.04514ZM6.83711 8.04514V7.1504H4.83711V8.04514H6.83711ZM6.83711 7.1504C6.83711 4.75273 8.81641 2.78198 11.2917 2.78198V0.781982C7.74197 0.781982 4.83711 3.61828 4.83711 7.1504H6.83711ZM11.2917 2.78198C13.7669 2.78198 15.7462 4.75274 15.7462 7.1504H17.7462C17.7462 3.61827 14.8413 0.781982 11.2917 0.781982V2.78198ZM15.7462 7.1504V8.04514H17.7462V7.1504H15.7462ZM16.7462 9.04514H17.2007V7.04514H16.7462V9.04514ZM17.2007 9.04514C18.9229 9.04514 20.2917 10.415 20.2917 12.0715H22.2917C22.2917 9.28054 19.9973 7.04514 17.2007 7.04514V9.04514ZM20.2917 12.0715C20.2917 13.7279 18.9229 15.0978 17.2007 15.0978V17.0978C19.9973 17.0978 22.2917 14.8624 22.2917 12.0715H20.2917ZM17.2007 15.0978H16.0644V17.0978H17.2007V15.0978ZM12.2917 18.782V10.7294H10.2917V18.782H12.2917ZM10.5902 10.0166L7.86293 12.7009L9.26584 14.1263L11.9931 11.4421L10.5902 10.0166ZM10.5902 11.4421L13.3175 14.1263L14.7204 12.7009L11.9931 10.0166L10.5902 11.4421Z" fill="#234CAD"/>
</svg>
